<svg width="700" height="508" viewBox="0 0 700 508" fill="none" xmlns="http://www.w3.org/2000/svg">
<rect width="700" height="508" fill="white"/>
<path fill-rule="evenodd" clip-rule="evenodd" d="M0 254V508H350H700V254V0H350H0V254ZM168.746 20.538C170.77 21.384 173.274 22.843 174.308 23.779C175.343 24.716 208.765 79.8 248.58 146.188C321.656 268.04 343.17 303.511 345.322 305.696C346.643 307.037 343.727 307.684 438 285.127C530.015 263.11 551 257.89 551 257.018C551 256.57 539.228 239.396 524.84 218.852C486.403 163.97 481.627 156.624 482.393 153.57C483.638 148.609 485.778 148.096 547.455 137.96C599.933 129.336 599.076 129.367 606.18 135.775C612.833 141.777 690.489 237.566 692.087 241.741C693.249 244.781 692.245 246.952 689.114 248.169C687.676 248.728 668.725 254.061 647 260.02C625.275 265.979 604.216 271.9 600.202 273.178L592.904 275.5L596.177 280C597.977 282.475 614.958 305.42 633.913 330.988C672.405 382.91 679 392.259 679 394.904C679 398.819 675.025 401.842 664.564 405.883C652.859 410.404 590.974 432.798 520 458.195C438.306 487.428 430.036 489.953 422.658 487.916C412.559 485.128 405.696 474.437 351.933 377.755C340.695 357.546 330.917 341.009 330.204 341.005C329.492 341.002 308.117 346.437 282.704 353.082C198.72 375.042 188.739 377.363 177.985 377.436C168.784 377.498 168.292 377.386 163.052 374.028C157.675 370.583 157.558 370.4 147.426 349.528C129.744 313.107 38.845 116.845 20.015 74.434C5.734 42.268 5.083 39.503 10.346 33.384C13.029 30.265 12.305 30.348 100 23.078C153.036 18.681 163.386 18.299 168.746 20.538ZM96 43.191C66.025 45.92 41.118 48.523 40.651 48.975C39.701 49.896 42.863 57.14 58.773 90.5C79.704 134.385 160.304 300.619 171.579 323.155L182.914 345.811L193.707 343.469C205.98 340.806 262.443 327.537 292.843 320.171C304.032 317.46 313.793 314.625 314.534 313.871C316.062 312.317 320.058 319.442 237.489 176.5C174.994 68.31 159.968 42.589 157.76 40.023C156.725 38.82 154.9 38.047 153.26 38.115C151.742 38.178 125.975 40.462 96 43.191ZM558 156.022C513.182 164.429 513.73 164.311 513.281 165.657C512.669 167.492 568.445 244.534 574.157 249.745L576.618 251.989L607.059 244.479C644.018 235.361 659 231.089 659 229.67C659 228.324 637.545 199.944 616.702 173.717C601.669 154.803 596.483 148.888 595.104 149.087C594.772 149.135 578.075 152.256 558 156.022ZM523.5 290.083C414.261 318.593 363.205 332.399 361.79 333.811C361.026 334.574 369.145 349.012 402.229 405.721C426.436 447.215 429.26 451.37 433.539 451.795C437.212 452.16 471.925 440.627 625.69 387.957C634.174 385.051 641.128 382.109 641.441 381.292C642.148 379.45 635.462 369.779 598.726 319.5C578.442 291.738 568.888 279.442 567.5 279.311C566.4 279.207 546.6 284.054 523.5 290.083Z" fill="black"/>
</svg>
